<?xml version="1.0" encoding="utf-8"?>
<!-- Generator: Adobe Illustrator 16.0.0, SVG Export Plug-In . SVG Version: 6.00 Build 0)  -->
<!DOCTYPE svg PUBLIC "-//W3C//DTD SVG 1.1//EN" "http://www.w3.org/Graphics/SVG/1.1/DTD/svg11.dtd">
<svg version="1.1" id="Layer_1" xmlns="http://www.w3.org/2000/svg" xmlns:xlink="http://www.w3.org/1999/xlink" x="0px" y="0px"
	 width="206.006px" height="48.221px" viewBox="0 0 206.006 48.221" enable-background="new 0 0 206.006 48.221"
	 xml:space="preserve">
<g>
	<g>
		<path fill="#414042" d="M62.316,30.725c2.829,0,5.117-0.559,6.863-1.672c1.956-1.233,2.934-3.038,2.934-5.418
			c0-1.985-0.812-3.55-2.438-4.693c-1.444-0.993-3.205-1.49-5.281-1.49c-2.74,0-5.011,0.903-6.817,2.709
			c-2.167,2.107-3.25,4.997-3.25,8.668c0,3.492,1.068,6.245,3.206,8.26c0.963,0.904,2.054,1.581,3.272,2.033
			c1.219,0.45,2.384,0.677,3.499,0.677c1.113,0,2.061-0.091,2.843-0.271c2.349-0.511,3.943-1.324,4.786-2.439l-1.038-3.925
			c-0.542,0.511-1.235,1.031-2.076,1.557c-0.844,0.527-1.957,0.79-3.342,0.79c-3.22,0-5.04-1.608-5.462-4.831
			c0.332,0.031,0.692,0.046,1.084,0.046H62.316z M60.059,26.886c0.121-1.444,0.618-2.647,1.49-3.611
			c0.391-0.481,0.843-0.857,1.354-1.128c0.511-0.271,1.052-0.406,1.625-0.406c0.571,0,1.054,0.173,1.444,0.519
			c0.392,0.346,0.588,0.843,0.588,1.491c0,0.646-0.151,1.166-0.452,1.557c-0.842,1.083-2.363,1.625-4.56,1.625h-0.812
			C60.436,26.932,60.21,26.917,60.059,26.886z"/>
		<path fill="#414042" d="M93.873,34.38c-1.234,0.452-2.468,0.677-3.702,0.677c-2.769,0-5.026-1.038-6.771-3.116
			c-1.686-2.046-2.559-4.725-2.618-8.034c0.06-3.189,0.994-5.809,2.798-7.856c0.843-0.932,1.82-1.647,2.935-2.143
			c1.113-0.497,2.272-0.746,3.476-0.746c1.203,0,1.851,0.045,1.941,0.136c0.091,0.091,0.218,0.316,0.384,0.676
			c0.165,0.361,0.414,0.919,0.745,1.67c0.331,0.752,0.812,1.821,1.444,3.205h3.655l-0.901-9.345
			c-2.468-0.722-5.011-1.083-7.63-1.083c-3.972,0-7.373,1.37-10.202,4.108c-3.13,3.01-4.694,7.013-4.694,12.007
			c0,4.816,1.518,8.64,4.56,11.468c1.383,1.264,2.994,2.212,4.83,2.843c1.835,0.632,3.491,0.949,4.964,0.949
			c1.476,0,2.664-0.091,3.568-0.271c2.798-0.511,4.889-1.55,6.273-3.115l-1.895-4.019C96.159,33.269,95.106,33.93,93.873,34.38z"/>
		<path fill="#414042" d="M126.873,34.788c-0.121-0.333-0.197-0.557-0.227-0.678c-1.083,0.874-2.076,1.31-2.978,1.31
			c-0.452,0-0.798-0.113-1.039-0.338c-0.242-0.226-0.361-0.804-0.361-1.738V21.685h4.849v-4.3h-4.849V9.552l-0.406-0.724
			l-4.831,1.038c-0.032,0.452-0.047,1.371-0.047,2.755c0,1.368-0.014,2.957-0.044,4.764h-3.171v4.3h3.057l-0.023,10.53v1.172
			c0,2.348,0.588,4.05,1.76,5.102c0.512,0.481,1.107,0.822,1.786,1.015c0.676,0.196,1.489,0.295,2.437,0.295
			s1.911-0.227,2.889-0.677c0.978-0.453,1.678-0.903,2.099-1.354c-0.06-0.299-0.241-0.949-0.541-1.942
			C127.113,35.463,126.993,35.118,126.873,34.788z"/>
		<polygon fill="#414042" points="142.988,24.765 146.059,24.765 146.6,21.695 152.379,21.695 142.988,35.286 143.033,39.619 
			158.518,39.619 158.518,32.259 155.403,32.259 154.86,35.239 149.399,35.239 158.518,21.784 158.518,17.451 142.988,17.451 		"/>
		<path fill="#414042" d="M176.125,34.72c-0.844,0.527-1.958,0.79-3.341,0.79c-3.221,0-5.042-1.608-5.463-4.831
			c0.332,0.031,0.692,0.046,1.084,0.046h1.218c2.828,0,5.117-0.559,6.862-1.672c1.956-1.233,2.934-3.038,2.934-5.418
			c0-1.985-0.812-3.55-2.437-4.693c-1.444-0.993-3.205-1.49-5.282-1.49c-2.739,0-5.011,0.903-6.816,2.709
			c-2.168,2.107-3.25,4.997-3.25,8.668c0,3.492,1.067,6.245,3.205,8.26c0.962,0.904,2.055,1.581,3.273,2.033
			c1.219,0.45,2.384,0.677,3.498,0.677c1.114,0,2.061-0.091,2.845-0.271c2.349-0.511,3.943-1.324,4.786-2.439l-1.039-3.925
			C177.659,33.674,176.967,34.194,176.125,34.72z M168.855,23.275c0.391-0.481,0.843-0.857,1.355-1.128
			c0.511-0.271,1.052-0.406,1.624-0.406s1.054,0.173,1.444,0.519c0.391,0.346,0.588,0.843,0.588,1.491
			c0,0.646-0.152,1.166-0.451,1.557c-0.844,1.083-2.363,1.625-4.561,1.625h-0.813c-0.301,0-0.526-0.015-0.678-0.045
			C167.486,25.442,167.983,24.239,168.855,23.275z"/>
		<path fill="#414042" d="M202.398,36.321V23.411c0-1.957-0.692-3.46-2.076-4.515c-0.631-0.481-1.371-0.843-2.212-1.083
			c-0.842-0.24-1.745-0.361-2.709-0.361c-0.963,0-1.926,0.166-2.889,0.497c-0.964,0.332-1.731,0.708-2.303,1.128l-1.581-1.67
			l-6.679,1.174l0.496,3.07h2.302v14.491l-2.528,0.588l0.497,2.89h10.022l0.044-2.845l-2.573-0.542V23.546
			c0.091-0.121,0.256-0.271,0.497-0.452c1.053-0.812,2.196-1.219,3.43-1.219c1.867,0,2.799,0.933,2.799,2.799v11.558l-2.257,0.497
			v2.89h10.158l0.044-2.89L202.398,36.321z"/>
		<g>
			<path fill="#414042" d="M135.27,14.68c0.835,0,1.547-0.299,2.132-0.898c0.585-0.6,0.878-1.311,0.878-2.134
				c0-0.822-0.293-1.533-0.878-2.132c-0.584-0.599-1.296-0.898-2.132-0.898c-0.835,0-1.554,0.299-2.153,0.898
				c-0.599,0.6-0.898,1.31-0.898,2.132c0,0.823,0.299,1.534,0.898,2.134C133.715,14.381,134.435,14.68,135.27,14.68z"/>
			<path fill="#414042" d="M105.925,14.634c0.836,0,1.548-0.299,2.133-0.898c0.584-0.599,0.878-1.311,0.878-2.133
				c0-0.822-0.294-1.532-0.878-2.133c-0.585-0.599-1.296-0.897-2.133-0.897c-0.835,0-1.554,0.298-2.153,0.897
				c-0.599,0.601-0.897,1.311-0.897,2.133c0,0.823,0.298,1.535,0.897,2.133C104.372,14.334,105.09,14.634,105.925,14.634z"/>
			<polygon fill="#414042" points="99.71,17.975 99.71,21.685 103.334,21.685 102.389,37.413 99.71,37.886 100.015,39.644 
				104.854,39.649 105.153,37.471 105.709,33.356 106.262,37.471 106.563,39.649 111.401,39.644 111.708,37.886 109.028,37.413 
				108.083,21.685 111.833,21.685 111.833,17.385 99.71,17.385 			"/>
			<polygon fill="#414042" points="141.052,17.385 129.054,17.385 129.054,21.685 132.687,21.685 131.733,37.472 129.054,37.943 
				129.359,39.69 134.199,39.695 134.497,37.53 135.053,33.439 135.607,37.53 135.908,39.695 140.745,39.69 141.052,37.943 
				138.372,37.472 137.427,21.828 137.415,21.685 141.052,21.685 			"/>
		</g>
	</g>
</g>
<rect fill="#EF4136" width="48.221" height="48.221"/>
<g>
	<path fill="#FFFFFF" d="M24.326,14.666c0.832,0,1.542-0.299,2.125-0.896c0.583-0.597,0.875-1.307,0.875-2.127
		c0-0.819-0.292-1.526-0.875-2.125c-0.583-0.596-1.293-0.896-2.125-0.896c-0.833,0-1.55,0.3-2.146,0.896
		c-0.598,0.599-0.896,1.306-0.896,2.125c0,0.82,0.299,1.53,0.896,2.127C22.776,14.367,23.493,14.666,24.326,14.666z"/>
	<polygon fill="#FFFFFF" points="18.13,21.646 21.752,21.646 20.799,37.384 18.13,37.854 18.435,39.595 23.259,39.6 23.556,37.44 
		24.109,33.364 24.663,37.44 24.962,39.6 29.784,39.595 30.09,37.854 27.418,37.384 26.476,21.789 26.463,21.646 30.09,21.646 
		30.09,17.362 18.13,17.362 	"/>
	<path fill="#FFFFFF" d="M33.901,17.763c0.462,0,0.857-0.164,1.182-0.496c0.323-0.332,0.484-0.727,0.484-1.183
		c0-0.454-0.162-0.847-0.484-1.182c-0.324-0.33-0.719-0.494-1.182-0.494c-0.462,0-0.86,0.164-1.191,0.494
		c-0.332,0.335-0.498,0.728-0.498,1.182c0,0.456,0.166,0.851,0.498,1.183C33.041,17.599,33.439,17.763,33.901,17.763z"/>
	<polygon fill="#FFFFFF" points="30.458,21.644 32.472,21.644 31.943,30.384 30.458,30.646 30.628,31.614 33.308,31.616 
		33.475,30.415 33.781,28.151 34.088,30.415 34.255,31.616 36.933,31.614 37.103,30.646 35.62,30.384 35.096,21.721 35.089,21.644 
		37.103,21.644 37.103,19.262 30.458,19.262 	"/>
	<path fill="#FFFFFF" d="M14.557,17.759c0.463,0,0.857-0.165,1.18-0.496c0.324-0.332,0.488-0.726,0.488-1.183
		c0-0.453-0.164-0.848-0.488-1.181c-0.323-0.331-0.717-0.497-1.18-0.497c-0.461,0-0.86,0.166-1.19,0.497
		c-0.332,0.333-0.498,0.728-0.498,1.181c0,0.457,0.166,0.851,0.498,1.183C13.697,17.594,14.096,17.759,14.557,17.759z"/>
	<polygon fill="#FFFFFF" points="11.116,21.639 13.127,21.639 12.6,30.382 11.116,30.642 11.285,31.609 13.965,31.611 
		14.129,30.413 14.438,28.149 14.745,30.413 14.911,31.611 17.589,31.609 17.759,30.642 16.275,30.382 15.752,21.718 15.745,21.639 
		17.759,21.639 17.759,19.258 11.116,19.258 	"/>
	<path fill="#FFFFFF" d="M39.359,19.517c0.253,0,0.469-0.09,0.646-0.271c0.177-0.183,0.266-0.398,0.266-0.648
		s-0.089-0.465-0.266-0.646c-0.178-0.182-0.393-0.273-0.646-0.273c-0.253,0-0.471,0.092-0.653,0.273
		c-0.182,0.182-0.272,0.396-0.272,0.646s0.09,0.466,0.272,0.648C38.888,19.427,39.106,19.517,39.359,19.517z"/>
	<polygon fill="#FFFFFF" points="41.115,20.338 37.473,20.338 37.473,21.644 38.575,21.644 38.286,26.436 37.473,26.577 
		37.565,27.108 39.034,27.111 39.125,26.451 39.293,25.212 39.463,26.451 39.554,27.111 41.022,27.108 41.115,26.577 40.302,26.436 
		40.014,21.686 40.011,21.644 41.115,21.644 	"/>
	<path fill="#FFFFFF" d="M8.993,19.502c0.253,0,0.469-0.092,0.647-0.272c0.177-0.182,0.265-0.398,0.265-0.647
		c0-0.251-0.088-0.466-0.265-0.647c-0.178-0.182-0.394-0.273-0.647-0.273c-0.254,0-0.473,0.092-0.653,0.273
		c-0.183,0.182-0.273,0.396-0.273,0.647c0,0.249,0.09,0.466,0.273,0.647C8.521,19.41,8.739,19.502,8.993,19.502z"/>
	<polygon fill="#FFFFFF" points="7.106,21.627 8.208,21.627 7.92,26.419 7.106,26.561 7.199,27.093 8.667,27.095 8.758,26.438 
		8.927,25.196 9.095,26.438 9.186,27.095 10.654,27.093 10.747,26.561 9.934,26.419 9.647,21.67 9.643,21.627 10.747,21.627 
		10.747,20.322 7.106,20.322 	"/>
</g>
</svg>
